<?xml version="1.0" encoding="UTF-8"?>
<svg id="katman_2" data-name="katman 2" xmlns="http://www.w3.org/2000/svg" viewBox="0 0 56.49 49.17">
  <defs>
    <style>
      .cls-1 {
        fill: #fff;
      }
    </style>
  </defs>
  <g id="katman_1" data-name="katman 1">
    <g>
      <path class="cls-1" d="m55.85,16.32c.03-.28.07-.56.1-.84.1-.04.19-.11.23-.23,1.23-3.64-3.74-4.99-6.51-5.43-3.44-.53-6.97-.69-10.5-.78.32-.86-.4-1.86-1.19-2.35.05-.04.09-.07.13-.12.73-1.01,1.13-3.7.14-4.72C35.87-.61,31.2.09,28.16.15c-2.55.05-5.13.2-7.67-.14-.52-.07-1.35.13-1.64.62-1,1.73-.94,3.69.75,4.76-.9.33-1.26,1.3-1.11,2.2-3.75-.52-7.5-1.05-11.27-1.22-3.05-.14-6.37.51-6.45,4.09,0,.13.07.22.16.26-.19.91-.28,1.84-.38,2.73C.35,15.43-.07,17.73.01,19.86c-.02,1.17.03,2.36.19,3.55.02.17.18.34.35.39.34.11.68.21,1.03.31-.68,2.19-.04,5.57.06,7.74.17,3.66.19,7.29.91,10.89.03.17.13.28.25.33.66,2.49,3.78,2.59,6.27,3.04,6.23,1.11,12.68,1.54,18.97,2.37,3.48.46,6.96.71,10.47.69,3.44-.03,6.73-1.05,10.15-1.17.1,0,.19-.03.27-.06.08.03.18.05.3.01.75-.22,1.37-.34,1.71-1.15,1.01-2.36,1.95-2.31,4.19-1.96.18.03.41-.12.45-.3,1.84-9.08.4-18.93.29-28.22Zm-17.52-8.35c.22.37.16.7.05,1.06-.88-.02-1.76-.03-2.64-.05.22-.04.2-.36.02-.44.06-.47.05-.94.42-1.29.32-.3.81-.22,1.17-.08.4.14.76.44.98.8Zm-3.19.82c.02.08.07.14.12.18-2.44-.04-4.86-.1-7.25-.27-1.98-.14-3.95-.37-5.93-.62-.03-.95-.3-2.1-1.04-2.58.39.03.8-.16,1.1-.4.22-.18.37-.44.49-.69.11-.23.21-.56.22-.84,2.68,1.98,4.67,2.63,8.19,2.18.72-.09,2.37-.25,3.5-.77.27.69.84,1.27,1.53,1.59-.76.38-1.24,1.26-.94,2.22ZM23.69,1.03c1.93-.04,3.84-.09,5.77-.12,1.3-.02,2.58-.05,3.88.02,1.95.1,6.5,2.73,4.05,5.02-.08.07-.12.15-.14.23-.53-.06-1.01-.16-1.5-.49-.39-.26-.6-.6-.72-.98.49-.34.78-.79.66-1.4-.07-.35-.48-.37-.69-.14-.07.08-.14.14-.21.21-.12-.08-.3-.08-.34.1-.02.09-.03.17-.04.25-1.1.86-2.5,1.04-3.92,1.24-3.21.45-5.11-.42-7.57-2.23-.28-.21-.57.09-.53.36-.15.03-.27.14-.27.32,0,.24.1.45.04.68-.06.23-.19.44-.35.61-.33.36-.72.37-1.17.42-.07,0-.11.09-.1.15,0,0,0,.01,0,.02-.13-.03-.27-.04-.42-.03-3.86-5.07,2.27-4.22,3.59-4.25Zm-3.73,4.92c1.12-.31,1.39,1.09,1.43,2.04-.79-.11-1.58-.21-2.36-.32-.04-.73.14-1.51.93-1.72Zm28.9,27.65c.07,1.57.12,3.06.01,4.63-.12,1.68.58,8.33-1.71,8.68-7.06,1.05-13.47,1.17-20.56.25-6.63-.86-13.6-1.13-20.07-2.75-2.48-.62-2.74-1.1-2.89-3.68-.12-2.03.07-4.13.02-6.18-.08-3.3-.19-6.58-.16-9.88,1.41.41,2.8.85,4.21,1.54,3.03,1.48,6.15,2.6,9.37,3.57.2.07.38.01.51-.09.14.03.27.05.4.07,1.08.16,2.02.57,3.08.65.04,0,.07.01.11.01.16,0,.33.01.5,0,.07,0,.14-.03.19-.05.12.44.26.86.22,1.32-.04.53-.11,1.19.14,1.68.13.25.32.68.65.7.53.03,1.11.13,1.67.14,1.07,0,2.21-.24,2.43-1.38.12-.62.18-1.26.22-1.9.84.14,1.75.07,2.58.05.27,0,.58.02.9.02.09.08.21.14.37.14,3.76.01,7.45-.27,11.22-.1,2.48.11,4.66-.69,6.88-1.47.23.11.52.09.7-.19-1.12,1.71-1.09,2.03-.99,4.22Zm-22.5-2.95c-.03.32-.05.63-.08.95-.05.44-.09.89-.2,1.32-.09.36-1.36.43-1.74.44-.41.01-.87-.21-1.28-.14-.09-.1-.15-.22-.19-.35-.12-.43-.06-.94-.04-1.37.03-.73-.43-1.61-.57-2.37.64.12,1.33.08,1.97.09.75.01,1.5,0,2.25-.05-.03.35-.06.69-.09,1.04-.13.12-.15.31-.04.44Zm23.35-2.55c-3.21.74-5.33,1.79-8.77,1.64-3.06-.14-6.03.13-9.07.13-.59-.22-1.42-.01-2.02.01-.84.04-1.75.01-2.6.12.02-.41.04-.81.06-1.22.02-.28-.23-.44-.48-.41-1.56.15-3.18-.31-4.71-.12-.3.04-.41.4-.3.64-.06.04-.12.1-.13.19-.02.13-.02.26,0,.39-.03,0-.05-.01-.08,0-.08,0-.16,0-.24,0-.41-.35-1.15-.47-1.61-.58-.5-.12-1-.21-1.5-.27-.3-.03-.59.01-.88.05-2.45-.74-4.85-1.55-7.2-2.54-2.16-.9-4.04-2.16-6.33-2.74-1.42-.35-2.25-.9-2.73-1.62.36-2.15.08-4.47.17-6.64.1-2.34.35-4.51,1.07-6.74,2.16-2.15,7.22-1.13,9.68-.76,5.3.78,10.55,1.58,15.9,1.94,4.48.3,9,.92,13.49.76,2.85-.1,14.65-.46,13.94,4.75-.02.11.01.2.07.27-.3,2.39-.54,4.76-1.03,7.14-.64,3.1-1.36,4.83-4.71,5.6Zm-.36,18.62c.86-5.83.12-11.69.79-17.49.53-.18,1.06-.35,1.61-.49-.2,2.03-.41,4.25-.13,6.23-.05,1.26-.06,2.53-.07,3.78-.01,1.46-.12,3.02.06,4.5-1.36.38-1.1,2.56-2.26,3.47Zm4.22-3.39c-.76-.27-.86-.34-1.26-.26.02-1.42-.14-2.88-.16-4.28-.02-1.43.04-2.86.06-4.29.38-1.9.24-4.03.25-5.97,1.58-.49,2.21-1.09,2.17-2.95-.04-1.95.29-3.89.65-5.84-.13,6.2.26,12.43.02,18.62-.03.74.29,5.67-1.72,4.95Z"/>
      <path class="cls-1" d="m29.11,24.23c-.99.64-3.47-.25-4.57-.34-1.45-.13-2.84.5-4.27-.03-.37-.14-.71.28-.54.63.02.03.04.07.05.11,0,0,0,0,0,0-.51.67-.22,1.88-.24,2.65,0,.18.16.34.34.29,1.46-.35,2.93,0,4.41.04,1.56.04,3.07.22,4.55.74.26.09.51-.1.54-.36.1-1.1.26-2.19.35-3.3.02-.31-.36-.61-.65-.43Zm-6.44,2.55c-.19-.01-2.56-.22-2.55.24-.02-.66-.32-1.59,0-2.23.04,0,.09,0,.13-.01,1.37.44,2.83,0,4.24,0,1.3,0,2.97.81,4.32.52-.06.7-.12,1.4-.17,2.1-1.97-.52-3.93-.49-5.96-.62Z"/>
    </g>
  </g>
</svg>