<?xml version="1.0" encoding="UTF-8"?>
<svg id="katman_2" data-name="katman 2" xmlns="http://www.w3.org/2000/svg" viewBox="0 0 59.13 55.51">
  <defs>
    <style>
      .cls-1 {
        fill: #fff;
      }
    </style>
  </defs>
  <g id="katman_1" data-name="katman 1">
    <g>
      <g>
        <path class="cls-1" d="m40.04,27.15c-2.67-.03-5.2-1.7-6.11-4.25-.94-2.62-.15-5.56,2.01-7.33,2.09-1.72,5.12-1.91,7.43-.54,2.31,1.38,3.61,4.17,3.07,6.82-.62,3.05-3.29,5.26-6.4,5.29-1.32.01-1.33,2.07,0,2.06,3.61-.04,6.81-2.3,8.07-5.68,1.22-3.3.15-7.22-2.57-9.45-2.78-2.28-6.75-2.66-9.87-.81-3.12,1.86-4.71,5.52-4.03,9.07.76,3.98,4.4,6.83,8.4,6.88,1.32.01,1.32-2.04,0-2.06Z"/>
        <path class="cls-1" d="m57.94,23.12c-.93-.47-1.86-.93-2.78-1.4.17.3.34.59.51.89.29-2.25.1-4.5-.57-6.67-.16.39-.32.77-.47,1.16.98-.57,1.97-1.12,2.94-1.7.88-.52,1.39-1.46,1.18-2.49-.09-.47-.37-.87-.6-1.28-.7-1.21-1.39-2.41-2.09-3.62-.27-.47-.52-.93-.97-1.25-.8-.56-1.75-.49-2.57-.03-1.11.62-2.21,1.27-3.31,1.91.42.05.83.11,1.25.16-1.8-1.55-3.86-2.68-6.14-3.34.25.33.5.66.75.99v-3.67c0-.78-.07-1.52-.67-2.12C43.83.11,43.12,0,42.38,0h-4.31c-.5,0-1.02-.04-1.5.12-1.02.35-1.54,1.28-1.55,2.32-.02,1.34,0,2.68,0,4.01.25-.33.5-.66.75-.99-2.54.73-4.84,2.06-6.75,3.89.42-.05.83-.11,1.25-.16-1.03-.52-2.07-1.04-3.1-1.56-.66-.33-1.32-.6-2.08-.4-.73.2-1.21.73-1.54,1.37l-1.83,3.64c-.17.33-.35.67-.51,1-.54,1.14-.2,2.44.92,3.08,1,.57,2.07,1.04,3.1,1.56-.16-.39-.32-.77-.47-1.16-.57,2.32-.63,4.66-.19,7.01.16-.39.32-.77.47-1.16-.84.49-1.69.96-2.53,1.46-.75.45-1.26,1.18-1.25,2.08,0,.53.23.97.49,1.41.59,1.02,1.18,2.04,1.77,3.06.63,1.09,1.19,2.22,2.62,2.37,1.27.13,2.5-.87,3.55-1.48-.42-.05-.83-.11-1.25-.16,1.98,2.13,4.51,3.68,7.31,4.49-.25-.33-.5-.66-.75-.99,0,.92-.15,1.96.06,2.86.24,1.05,1.16,1.72,2.22,1.77.26.01.52,0,.77,0h3.54c1.16,0,2.36.08,3.09-1.04.63-.96.36-2.5.36-3.59-.25.33-.5.66-.75.99,3.08-.89,5.85-2.66,7.89-5.13-.42.05-.83.11-1.25.16l2.12,1.07c1.22.61,2.61.46,3.34-.82.82-1.44,1.5-2.98,2.25-4.46.14-.28.31-.58.4-.88.29-1.03-.2-2.09-1.11-2.62-1.15-.67-2.18,1.11-1.04,1.78.45.26-.25,1.13-.41,1.45-.49.97-.98,1.94-1.47,2.92-.16.31-.35,1.08-.78.93-.77-.26-1.53-.77-2.26-1.14-.38-.19-.95-.2-1.25.16-1.83,2.21-4.22,3.81-6.98,4.61-.43.13-.75.54-.75.99v1.07c0,.39.09.89,0,1.26-.1.42-.86.25-1.21.25h-3.12c-.29,0-1.43.19-1.58-.15-.12-.27,0-.84,0-1.13v-1.29c0-.46-.32-.87-.75-.99-2.47-.71-4.65-2.07-6.4-3.96-.31-.33-.86-.38-1.25-.16-.65.38-1.3.85-1.99,1.15-.68.3-1-.67-1.27-1.14-.53-.92-1.07-1.85-1.6-2.77-.13-.23-.36-.5-.44-.76-.07-.23.03-.28.21-.39.82-.5,1.67-.96,2.5-1.45.42-.24.56-.71.47-1.16-.37-1.98-.29-3.97.19-5.92.1-.42-.06-.95-.47-1.16-.91-.46-1.82-.92-2.73-1.37-.19-.1-.58-.2-.56-.46.02-.25.31-.62.42-.84.56-1.11,1.12-2.22,1.68-3.33.12-.23.22-.6.41-.8.21-.22.42-.02.67.11,1.02.51,2.05,1.03,3.07,1.54.42.21.9.17,1.25-.16,1.65-1.59,3.64-2.73,5.84-3.36.43-.13.75-.54.75-.99v-3.27c0-.23-.11-.77,0-.99.12-.23.58-.13.79-.13h3.96c.28,0,.67-.07.94,0,.31.08.22.46.22.73v3.67c0,.46.32.87.75.99,1.93.56,3.71,1.5,5.23,2.81.35.3.83.4,1.25.16.89-.51,1.77-1.02,2.66-1.54.21-.12.58-.46.84-.47.25-.02.36.34.47.52.61,1.05,1.21,2.1,1.82,3.15.21.36.49.73.64,1.11.09.23.05.31-.16.44-.95.59-1.95,1.12-2.92,1.69-.38.22-.6.73-.47,1.16.62,2.01.76,4.04.49,6.12-.04.33.22.74.51.89.93.47,1.86.93,2.78,1.4,1.18.59,2.22-1.18,1.04-1.78Z"/>
      </g>
      <g>
        <path class="cls-1" d="m12.28,46.7c-1.59-.18-2.89-1.41-3.27-2.93-.38-1.54.29-3.25,1.63-4.11,1.36-.87,3.18-.86,4.49.18,1.24.98,1.76,2.63,1.31,4.16-.54,1.82-2.32,2.86-4.16,2.7-.55-.05-1.03.51-1.03,1.03,0,.6.47.98,1.03,1.03,2.37.2,4.76-1.13,5.78-3.3,1.07-2.27.64-5-1.15-6.78-1.78-1.76-4.49-2.17-6.74-1.1-2.16,1.02-3.53,3.45-3.28,5.83.3,2.89,2.54,5.03,5.4,5.35.55.06,1.03-.52,1.03-1.03,0-.61-.47-.97-1.03-1.03Z"/>
        <path class="cls-1" d="m24.24,45.25c-.57-.36-1.13-.72-1.7-1.08.16.39.32.77.47,1.16.36-1.57.37-3.12.06-4.69-.16.39-.32.77-.47,1.16.67-.3,1.37-.57,2.02-.92.63-.33,1.04-.97,1.02-1.7-.01-.42-.21-.8-.38-1.17l-1.14-2.51c-.5-1.1-1.52-1.6-2.68-1.09-.76.34-1.52.69-2.29,1.04.42.05.83.11,1.25.16-1.11-1.16-2.43-2.01-3.92-2.6.25.33.5.66.75.99.08-.81.16-1.61.24-2.42.06-.58-.04-1.14-.46-1.58-.41-.43-.91-.56-1.48-.61-.94-.1-1.89-.18-2.83-.28-.38-.04-.73-.08-1.11.04-.8.25-1.2.93-1.29,1.72-.1.88-.17,1.76-.26,2.63l.75-.99c-1.76.33-3.33,1.1-4.73,2.2.42-.05.83-.11,1.25-.16-.65-.41-1.29-.82-1.94-1.23-1.04-.66-2.14-.4-2.81.62-.49.75-.95,1.51-1.43,2.26-.13.2-.27.39-.38.6-.46.84-.27,1.86.5,2.43.64.47,1.34.87,2.01,1.29-.16-.39-.32-.77-.47-1.16-.5,1.42-.69,2.92-.57,4.42.17-.3.34-.59.51-.89-.84.38-2.1.7-2.56,1.57-.57,1.07.25,2.28.69,3.25.39.86.75,2.29,1.74,2.62.99.34,2.15-.46,3.04-.86-.47-.12-.94-.25-1.41-.37,1.26,1.64,2.83,2.85,4.76,3.62-.25-.33-.5-.66-.75-.99-.1,1.03-.41,2.19.48,2.97.69.61,2.01.54,2.89.62.85.08,1.98.38,2.76-.07,1.05-.61.96-1.96,1.06-3.02-.25.33-.5.66-.75.99,2.1-.4,4.02-1.43,5.54-2.93-.42.05-.83.11-1.25.16.57.36,1.17.87,1.82,1.08.8.26,1.62-.06,2.1-.73.12-.18.24-.36.35-.54.46-.72.91-1.44,1.37-2.16.65-1.02.63-2.08-.4-2.87-.44-.34-1.15-.07-1.41.37-.31.53-.07,1.07.37,1.41-.23-.18-.02-.4-.22-.14-.15.2-.27.43-.41.65-.36.57-.72,1.14-1.08,1.71-.06.1-.28.33-.29.45,0,.04-.34.36.16-.1.09-.09.14.1.03-.04-.17-.2-.55-.35-.77-.49-.19-.12-.39-.25-.58-.37-.39-.24-.93-.15-1.25.16-1.29,1.27-2.86,2.07-4.64,2.4-.47.09-.71.56-.75.99l-.1.98c-.01.15-.06.32-.05.47.02.21.07-.37.14-.24-.03-.05-.51-.05-.57-.06-.4-.04-.79-.08-1.19-.12-.4-.04-.79-.08-1.19-.12-.14-.01-.28-.03-.41-.04-.12-.01-.13-.05-.09-.01.08.08.22.12.24.1.06-.05.04-.41.05-.49.03-.33.06-.66.1-.98.05-.48-.36-.83-.75-.99-1.38-.55-2.63-1.5-3.53-2.67-.37-.48-.84-.62-1.41-.37-.3.14-.6.27-.9.41-.21.09-.42.18-.62.28-.49.26.49-.17.39.13.03-.1-.22-.49-.27-.59-.19-.42-.38-.84-.57-1.26-.18-.39-.35-.78-.53-1.17-.04-.09-.08-.22-.14-.3-.11-.16.12.34,0,.28.11.05.8-.36.9-.41.3-.14.6-.27.9-.41.3-.14.54-.56.51-.89-.11-1.34.05-2.6.49-3.87.15-.44-.11-.93-.47-1.16-.19-.12-1.92-1.14-1.89-1.2.06-.15.18.28.11.29.01,0,.03-.06.04-.06.09-.06.17-.27.22-.35.27-.42.54-.85.81-1.27.24-.37.51-.74.71-1.13.01-.02.12-.15.11-.18.14.39-.31.02-.29.12,0,.02.08.05.1.06.32.29.79.5,1.16.73.29.19.59.37.88.56.42.27.89.12,1.25-.16,1.12-.88,2.44-1.41,3.82-1.67.47-.09.71-.56.75-.99.08-.85.16-1.7.25-2.55.04-.37-.09.26-.13.16,0,.02.25.02.27.03.5.05,1,.1,1.49.15s1,.1,1.49.15c.06,0,.14.03.2.02.11-.01.05.07-.06,0-.21-.15-.11-.18-.19-.02-.07.14-.04.42-.06.58-.03.29-.06.58-.09.87-.04.37-.07.75-.11,1.12-.05.48.36.83.75.99,1.15.46,2.16,1.18,3.01,2.07.34.36.83.35,1.25.16.73-.33,1.46-.68,2.2-1,.35-.15-.25.06-.2-.03-.01.02.08.17.09.19.17.41.37.81.55,1.22.21.46.42.91.62,1.37.05.12.1.28.17.38.12.16-.13-.31,0-.27-.16-.05-.87.4-1.03.47-.34.16-.69.31-1.03.47-.43.2-.56.75-.47,1.16.24,1.2.21,2.41-.06,3.6-.1.46.07.91.47,1.16.57.36,1.13.72,1.7,1.08,1.12.71,2.15-1.07,1.04-1.78Z"/>
      </g>
    </g>
  </g>
</svg>