<?xml version="1.0" encoding="UTF-8"?>
<svg id="katman_2" data-name="katman 2" xmlns="http://www.w3.org/2000/svg" viewBox="0 0 55.71 58.45">
  <defs>
    <style>
      .cls-1 {
        fill: #fff;
      }
    </style>
  </defs>
  <g id="katman_1" data-name="katman 1">
    <g>
      <path class="cls-1" d="m55.05,33.41c.16-4.08-.76-8.52-1.09-12.5-.54-6.53-.25-13.17-1.27-19.64,0-.03-.03-.04-.04-.07-.05-.2-.16-.4-.37-.54-.05-.03-.12-.05-.17-.08-.17-.44-.77-.77-1.19-.42-1.63-.29-3.78.05-4.99.09-5.3.18-10.67.8-15.95,1.28-9.7.89-19.46.07-29.13,1.03-.46.05-.61.46-.5.78-.26.09-.45.39-.26.67.17.26.38.5.57.74-.42,4.35.23,8.88.49,13.2.37,6.21.81,12.42,1.03,18.63,0,.11.03.2.07.29-.08.24,0,.53.31.58,6.74.98,13.31,1.58,20.1.18,10.58-2.18,21.52-.81,32.22-1.26.62-.02.89-.69.71-1.17.07-.08.12-.16.14-.27.09-.53-.19-1.05-.65-1.53Zm-3.63-31.16s.01,0,.02,0c.14.1.28.13.41.14-.26,6.15.34,12.45.71,18.58.22,3.56.23,7.41.69,11.06-.64-.4-1.27-.75-1.66-1.01-2.33-1.58-4.82-2.85-7.12-4.51-2.1-1.52-4.02-3.26-6.07-4.83,4.99-6.06,9.49-12.64,13.02-19.43ZM1.35,3.76c8.22.22,16.48.48,24.68-.17,3.99-.31,7.96-.71,11.95-.95,2.64-.16,8.61-1.7,11.97-.97-2.27,4.01-4.92,7.8-7.4,11.69-3.85,6.03-8.79,11.02-13.02,16.69-.03-.03-.05-.06-.08-.09-.05-.06-.11-.1-.17-.13-3.01-2.98-6.09-5.88-9.18-8.74-.05-.06-.1-.11-.16-.15C13.81,15.26,7.57,9.71,1.4,4.02c-.02-.08-.03-.17-.05-.26Zm2.26,32.03c-.33-5.26-.61-10.53-.94-15.79-.27-4.49-.15-9.27-.85-13.78,3.32,3.75,7.85,6.68,11.36,10.19,1.75,1.75,3.53,3.47,5.31,5.19-2.65,2.47-5.39,4.83-8.05,7.29-1.97,1.81-3.65,3.97-5.69,5.69-.48.41-.85.78-1.14,1.21Zm23.09-.26c-4.19.3-8.19,1.37-12.43,1.44-3.18.05-7.68-1.12-10.59.06,2.87-2.7,5.83-5.34,8.74-8.01,2.14-1.95,5.46-3.88,7.17-6.36,3.03,2.92,6.08,5.83,9.06,8.8.5.51,1.12.12,1.26-.42,2.61-2.62,5.15-5.42,7.6-8.33,2.86,2.98,6.3,5.5,9.79,7.69,1.67,1.05,3.4,1.95,5.01,3.12.43.31.88.78,1.36,1.19,0,.01,0,.02,0,.03-9.02.24-17.96.13-26.98.79Z"/>
      <path class="cls-1" d="m24.03,15.58c1.07.87,2.24-.09,2.93-1.13.58,1.68,2.08,2.68,4.15,1.08,3.32-2.55-.56-8.58-3.47-9.5-6.11-1.94-10.13,4.36-8.1,9.64,2.02,5.28,8.09,7.23,11.83,2.65.47-.58-.39-1.36-.85-.78-5.82,7.22-15.07-5.04-7.89-9.79,3.53-2.34,8.33.68,8.5,4.67.08,2.11-3.16,4.25-3.7,1.12.01-.02.02-.05.03-.07.24-.7.39-1.47.22-2.11.11-.4.23-.8.33-1.2.05-.22-.26-.41-.41-.21-.15.19-.28.4-.39.62-.19-.17-.42-.32-.72-.43-1.21-.4-3,.26-3.14,1.68-.02.21.07.41.21.55-.45,1.1-.5,2.4.48,3.2Zm.02-2.65c.03-.15.07-.29.12-.42.06-.03.12-.08.18-.15.44-.54.86-.98,1.6-.98.97,0,.7,1.05.55,1.62-.2.81-1.18,2.54-2.2,1.76-.52-.39-.38-1.29-.26-1.83Z"/>
      <path class="cls-1" d="m41.84,45.64c-.02-.05-.04-.11-.07-.16-.42-.75-1.52-.68-2.26-.64-.69.04-1.3.13-1.93.08.08-.65-.12-1.46-.16-2.01-.1-1.32-.03-2.86-.47-4.12-.15-.42-.77-.4-.87.04-.03.13-.03.27-.05.4-1.61-.43-3.88.16-5.48.23-1.62.07-3.23.29-4.86.31-1.3.02-2.22-.27-3.31-.04-.11-.2-.48-.19-.55.03-.02.05-.02.1-.04.14-.05.02-.1.03-.15.05-.11.04-.12.18-.02.24.03.02.06.03.1.04-.15.74-.05,1.47.02,2.25.11,1.33.27,2.66.35,3.99-.42-.05-.86-.02-1.25-.03-.69,0-1.37.02-2.04.19-.3.08-.36.57-.06.69h0c.23,1.46,2.47,3.02,3.44,3.93,1.36,1.29,2.73,2.54,4.14,3.78,1.18,1.04,3.06,1.83,3.93,3.1.35.51.97.29,1.14-.15,3.89-3.4,6.07-8.54,10.38-11.44.33-.22.3-.68.08-.93Zm-17.24-4.57c-.68.38-1.32,1.17-1.62,1.77-.09-.71-.13-1.46-.29-2.16.61.21,1.25.32,1.91.39Zm-4,6.65c.57.07,1.13.2,1.7.25.66.06.97-.53.78-.98.14-.11.25-.27.27-.5,0-.05,0-.1.01-.15,0-.06-.02-.11-.04-.16-.05-.85-.14-1.7-.24-2.55.14.09.32.11.47,0,.38-.29.72-.64,1.07-.96.41-.36.85-.47,1.3-.74.27-.17.31-.58.1-.81,1.24,0,2.49-.12,3.61-.19.58-.03,1.23,0,1.9.02-2.13,1.71-4.05,3.5-5.87,5.59-.71.82-2.62,2.68-2.33,4-.79-.79-1.74-1.97-2.72-2.84Zm15.3,2.96c-.99,1.3-1.98,2.6-3.06,3.84-.06.08-1.23,1.65-1.84,2.51-.63-.77-1.6-1.28-2.42-1.81-1.75-1.12-3.35-2.77-4.85-4.25.03-.01.07,0,.09-.04,1.24-1.44,2.43-2.92,3.73-4.31,1.57-1.67,2.9-3.8,4.57-5.32.1-.09.09-.2.05-.3,1.32.05,2.68.04,3.78-.42.04.68.13,1.37.18,2,.05.62-.06,1.68.16,2.44-.22.25-.27.66.03.92.81.67,1.91.6,2.89.55.15,0,.33-.03.51-.04-1.51,1.14-2.7,2.74-3.84,4.24Z"/>
      <path class="cls-1" d="m27.49,41.48c-.87-.02-1.82.91-2.45,1.44-.74.62-1.28,1.37-1.55,2.3-.09.32.4.6.6.31.53-.75,1.21-1.38,1.93-1.95.57-.46,1.52-.83,1.84-1.52.13-.28-.07-.57-.37-.58Z"/>
      <path class="cls-1" d="m29.52,41.05c-1.39,1.06-2.79,2.27-3.84,3.67-.53.71-1.05,1.42-1.6,2.12-.51.65-1.21,1.16-1.64,1.87-.04.06.02.14.08.13,1.38-.13,2.53-1.87,3.29-2.87,1.26-1.63,3.02-2.82,4.17-4.5.19-.27-.22-.63-.48-.43Z"/>
      <path class="cls-1" d="m34,41.76c-1.36-.6-2.52,1.73-3.13,2.59-1.46,2.06-3.3,3.89-5.06,5.69-.39.39.15.97.6.71,1.87-1.1,3.21-3.08,4.61-4.69.62-.71,1.15-1.47,1.71-2.23.43-.58,1.06-1.05,1.39-1.69.07-.13.02-.32-.12-.39Z"/>
      <path class="cls-1" d="m34.55,44.07c-1.69.17-3.14,2.15-4.19,3.35-1.34,1.54-3,3.38-3.69,5.33-.11.28.28.5.5.35,1.54-1.06,2.72-2.82,3.93-4.22,1.15-1.32,3.25-2.76,3.72-4.48.04-.16-.11-.34-.27-.32Z"/>
      <path class="cls-1" d="m35.09,47.06c-1.37-.25-2.3,1.67-3.12,2.49-1.32,1.33-2.52,2.62-3.29,4.35-.15.34.3.71.55.39,1.02-1.29,2.26-2.43,3.47-3.54.56-.51,1.03-1.07,1.52-1.65.42-.51.98-.93,1.14-1.59.05-.19-.08-.4-.28-.44Z"/>
      <path class="cls-1" d="m36.69,47.37c-1.17.68-1.85,2.09-2.62,3.15-1.2,1.65-2.75,3.01-3.76,4.81-.12.21.15.45.35.31,1.56-1.08,2.95-2.55,4.19-3.99.94-1.09,1.64-2.32,2.63-3.37.49-.52-.2-1.26-.78-.92Z"/>
    </g>
  </g>
</svg>