<?xml version="1.0" encoding="UTF-8"?>
<svg id="katman_2" data-name="katman 2" xmlns="http://www.w3.org/2000/svg" viewBox="0 0 71.27 52.26">
  <defs>
    <style>
      .cls-1 {
        fill: none;
        stroke: #fff;
        stroke-miterlimit: 10;
        stroke-width: 1.5px;
      }
    </style>
  </defs>
  <g id="katman_1" data-name="katman 1">
    <g>
      <path class="cls-1" d="m20.05,21.27c-2.31,1.44-6.53,4.23-10.33,7.21-.9.7-.93,2.06-.06,2.8,3.91,3.35,9.61,7.66,13.03,10.13.47.34.74.88.74,1.46v.37c0,1.44-.58,3.24-2.38,3.24-1.08,0-2.66-.43-3.89-1.22-3.89-2.57-11.32-8.22-15.92-12.94-.33-.34-.5-.78-.5-1.25v-1c0-1.94,1.01-3.17,2.74-4.54,3.52-2.83,10.92-8.11,17.29-11.86,1.21-.71,2.72.16,2.72,1.56h0c0,2.66-.94,4.46-3.46,6.05Z"/>
      <path class="cls-1" d="m43.52,6.58l-11.09,43.26c-.25.99-1.14,1.67-2.16,1.67h0c-1.44,0-2.52-1.01-2.52-3.38,0-1.01.14-2.23.5-3.53L39.2,2.42c.25-.98,1.14-1.67,2.16-1.67h.08c1.66,0,2.45,1.3,2.45,3.17,0,.86-.14,1.73-.36,2.66Z"/>
      <path class="cls-1" d="m47.76,15.29c0-1.4,1.52-2.27,2.73-1.56,6.37,3.74,13.78,9.03,17.29,11.86,1.73,1.37,2.74,2.59,2.74,4.54v1c0,.47-.17.92-.5,1.25-4.59,4.73-12.03,10.37-15.92,12.94-1.22.79-2.81,1.22-3.89,1.22-1.8,0-2.38-1.8-2.38-3.24v-.37c0-.58.27-1.12.74-1.46,3.42-2.47,9.11-6.78,13.03-10.12.87-.74.84-2.09-.06-2.8-3.8-2.97-8.02-5.77-10.33-7.21-2.52-1.58-3.46-3.38-3.46-6.05h0Z"/>
    </g>
  </g>
</svg>